<svg id="Layer_1" data-name="Layer 1" xmlns="http://www.w3.org/2000/svg" xmlns:xlink="http://www.w3.org/1999/xlink" viewBox="0 0 1549.37 1796.78"><defs><style>.cls-1{fill:none;}.cls-2{fill:#231f20;}.cls-3{fill:#0bbdff;}.cls-4{fill:url(#radial-gradient);}.cls-5{opacity:0.8;}.cls-6{fill:#9bc2d1;}</style><radialGradient id="radial-gradient" cx="-1745.87" cy="1517.22" r="9.3" gradientTransform="matrix(88.62, 0, 0, -86.94, 155496.65, 132891.84)" gradientUnits="userSpaceOnUse"><stop offset="0.15" stop-color="#fff"/><stop offset="0.44" stop-color="#fcfcfd"/><stop offset="0.6" stop-color="#f4f7f9"/><stop offset="0.72" stop-color="#e6eff2"/><stop offset="0.83" stop-color="#d3e2e7"/><stop offset="0.93" stop-color="#bad1da"/><stop offset="1" stop-color="#a4c4cf"/></radialGradient></defs><rect class="cls-1" x="51.07" y="363.42" width="1428.9" height="1428.9"/><g id="b"><ellipse class="cls-2" cx="1292.47" cy="1176.22" rx="298.78" ry="143.31" transform="translate(-68.77 2272.12) rotate(-81.14)"/><path class="cls-3" d="M1333.42,1433.28a238.57,238.57,0,0,0,22-26.29l64.83-438.43a224.15,224.15,0,0,0-13.62-30.64Z"/><ellipse class="cls-2" cx="233.71" cy="1176.14" rx="144.82" ry="298.9" transform="translate(-151.68 40.62) rotate(-7.51)"/><path class="cls-3" d="M110,965.19l54,440a240.77,240.77,0,0,0,21.56,26.86L124.49,934.94A221.25,221.25,0,0,0,110,965.19Z"/><path class="cls-4" d="M1358.39,914.28c0-256.87-265.18-465.12-592.28-465.12S173.82,657.39,173.82,914.28c0,7.14.28,14.29.68,21.28h-.44l1.14,9q1.32,15.89,4,31.44L210,1220.38l27.46,217a235.65,235.65,0,0,0,110,170.31c107.17,66.6,255.13,107.81,418.67,107.81,156,0,297.85-37.49,403.62-98.76a234.78,234.78,0,0,0,114.89-169.51l66.56-460.47a370.93,370.93,0,0,0,6.52-50.79v-.45h0C1358.1,928.5,1358.39,921.41,1358.39,914.28Z"/><g class="cls-5"><path class="cls-6" d="M766.1,722.28A159.5,159.5,0,0,1,605.33,564.47V465.74a4.09,4.09,0,1,1,8.17,0v98.73a152.62,152.62,0,0,0,305.17,0V465.74a4.09,4.09,0,0,1,8.18,0v98.73A159.48,159.48,0,0,1,766.1,722.28Z"/></g><g class="cls-5"><path class="cls-6" d="M1139.55,1637.16h-.3a4.09,4.09,0,0,1-3.77-4.37c15.72-213.3,54.47-719.2,73.42-809.82,21-100.68,78.7-126.11,81.14-127.17a4.09,4.09,0,1,1,3.58,7.35l-.39.17c-1,.44-56.31,25.49-76.33,121.29-18.84,90.14-57.52,595.61-73.26,808.76A4.09,4.09,0,0,1,1139.55,1637.16Z"/></g><g class="cls-5"><path class="cls-6" d="M384.42,1632.86a4.08,4.08,0,0,1-4.07-3.79c-15.72-212-54.2-714.74-72.87-804.47-20-96.05-70-117.92-70.45-118.12a4.09,4.09,0,1,1,3.12-7.56c2.21.9,54.3,23.32,75.33,124,18.84,90.16,57.4,593.35,73.09,805.5a4.09,4.09,0,0,1-3.78,4.37Z"/></g><path class="cls-2" d="M450.24,1020.75a160.38,160.38,0,0,0-159.17,180h0L318.54,1422a159.08,159.08,0,0,0,73,114.83c98.89,62.55,231.91,97,374.6,97,136,0,264.55-31.71,362.1-89.3a156.94,156.94,0,0,0,75.53-113.89l32.2-227a160.39,160.39,0,0,0-158.79-182.9Z"/><path class="cls-6" d="M766.1,1642c-144.19,0-278.78-34.89-379-98.27A166.75,166.75,0,0,1,310.42,1423L283,1201.83a168.6,168.6,0,0,1,167.26-189.27h626.92A168.63,168.63,0,0,1,1244,1204.79l-32.21,227a165,165,0,0,1-79.47,119.77C1033.56,1609.91,903.48,1642,766.1,1642ZM450.24,1028.91A152.22,152.22,0,0,0,298,1181.13a153.76,153.76,0,0,0,1.15,18.7L326.64,1421A150.4,150.4,0,0,0,395.87,1530c97.61,61.75,229.09,95.74,370.23,95.74,134.51,0,261.63-31.32,357.95-88.18a148.77,148.77,0,0,0,71.6-108l32.21-227a152.24,152.24,0,0,0-150.71-173.58Z"/><path class="cls-6" d="M1329,769.47c17.8,104.92-54.14,416.29-69.18,567.43-16.4,164.87-72.63,336.57-493.68,336.57S249,1485.65,249,1485.59a236.82,236.82,0,0,0,98.51,122.12c107.17,66.6,255.13,107.82,418.67,107.82,156,0,297.85-37.49,403.62-98.77a234.8,234.8,0,0,0,114.9-169.51l66.55-460.46a370.77,370.77,0,0,0,6.51-50.78v-.45h0c.4-7,.68-14.14.68-21.29A374.77,374.77,0,0,0,1329,769.47Z"/><path class="cls-3" d="M1083.65,1290.38a11.61,11.61,0,0,1-7.71-2.86,106.61,106.61,0,0,0-73.61-25.6,97.26,97.26,0,0,0-65.45,25.1,11.65,11.65,0,0,1-16.48-16.46,119.32,119.32,0,0,1,81.36-31.92,129.62,129.62,0,0,1,89.59,31.44,11.64,11.64,0,0,1-7.71,20.37Z"/><path class="cls-3" d="M447.41,1290.41a11.65,11.65,0,0,1-7.65-20.45,131.55,131.55,0,0,1,89.68-32.06,120.33,120.33,0,0,1,81.13,32.56,11.65,11.65,0,0,1-16.35,16.59,105.74,105.74,0,0,0-139.2.5A11.58,11.58,0,0,1,447.41,1290.41Z"/><path class="cls-3" d="M707.5,1381.29a18.58,18.58,0,0,0-13.14,31.79,96.12,96.12,0,0,0,70.33,25.72,87.26,87.26,0,0,0,67.16-26.49,18.58,18.58,0,0,0-13.7-31.28Z"/></g><polygon class="cls-3" points="607.61 361.87 578.35 111.14 678.99 280.07 758.8 111.14 837.73 281.84 926.85 111.14 907.78 363.43 607.61 361.87"/></svg>