<svg xmlns="http://www.w3.org/2000/svg" xmlns:xlink="http://www.w3.org/1999/xlink" width="100" height="100" viewBox="0 0 100 100"><defs><style>.a{clip-path:url(#c);}.b{fill:#231f20;}.c{fill:#c619ff;}.d{fill:url(#a);}.e,.g{opacity:0.8;}.e{mix-blend-mode:multiply;}.e,.g,.h{isolation:isolate;}.f,.h{fill:#c49bd1;}.g,.h{mix-blend-mode:darken;}.i{opacity:0;}</style><radialGradient id="a" cx="0.507" cy="0.436" r="0.651" gradientTransform="translate(-0.034 -0.007) scale(1.069 0.981)" gradientUnits="objectBoundingBox"><stop offset="0.153" stop-color="#fff"/><stop offset="0.438" stop-color="#fdfcfd"/><stop offset="0.596" stop-color="#f8f4f9"/><stop offset="0.723" stop-color="#efe6f2"/><stop offset="0.833" stop-color="#e2d3e7"/><stop offset="0.932" stop-color="#d2bada"/><stop offset="1" stop-color="#c4a4cf"/></radialGradient><clipPath id="c"><rect width="100" height="100"/></clipPath></defs><g id="b" class="a"><g transform="translate(-213.799 -244.902)"><g transform="translate(213.799 250.902)"><ellipse class="b" cx="20.911" cy="10.03" rx="20.911" ry="10.03" transform="matrix(0.154, -0.988, 0.988, 0.154, 73.748, 69.998)"/><path class="c" d="M1965.591,2420.208a16.8,16.8,0,0,0,1.542-1.84l4.537-30.683a15.677,15.677,0,0,0-.953-2.144Z" transform="translate(-1875.847 -2351.335)"/><ellipse class="b" cx="10.135" cy="20.918" rx="10.135" ry="20.918" transform="translate(0 31.463) rotate(-7.508)"/><path class="c" d="M1406.974,2386.29l3.782,30.794a16.857,16.857,0,0,0,1.509,1.88l-4.273-34.791A15.535,15.535,0,0,0,1406.974,2386.29Z" transform="translate(-1402.854 -2350.176)"/><path class="d" d="M1519.04,2194.925c0-17.977-18.558-32.551-41.45-32.551s-41.451,14.573-41.451,32.551c0,.5.02,1,.048,1.489h-.031l.08.633c.061.741.155,1.474.278,2.2l2.158,17.1,1.922,15.189a16.491,16.491,0,0,0,7.7,11.919c7.5,4.661,17.855,7.545,29.3,7.545,10.916,0,20.845-2.624,28.247-6.912a16.432,16.432,0,0,0,8.041-11.863l4.658-32.225a25.906,25.906,0,0,0,.456-3.555l0-.031h0C1519.02,2195.92,1519.04,2195.424,1519.04,2194.925Z" transform="translate(-1427.549 -2162.374)"/><g class="e" transform="translate(38.79 0.874)"><path class="f" d="M1644.414,2186.316a11.162,11.162,0,0,1-11.251-11.044v-6.91a.286.286,0,0,1,.572,0v6.91a10.681,10.681,0,0,0,21.357,0v-6.91a.286.286,0,1,1,.572,0v6.91A11.161,11.161,0,0,1,1644.414,2186.316Z" transform="translate(-1633.164 -2168.076)"/></g><g class="g" transform="translate(75.89 17.24)"><path class="f" d="M1875.494,2340.75h-.021a.286.286,0,0,1-.264-.306c1.1-14.927,3.812-50.332,5.138-56.674,1.472-7.046,5.508-8.826,5.679-8.9a.286.286,0,1,1,.223.526c-.069.031-3.941,1.784-5.342,8.489-1.318,6.308-4.025,41.683-5.127,56.6A.286.286,0,0,1,1875.494,2340.75Z" transform="translate(-1875.208 -2274.849)"/></g><g class="g" transform="translate(12.83 17.46)"><path class="f" d="M1474.3,2341.666a.286.286,0,0,1-.285-.265c-1.1-14.836-3.793-50.021-5.1-56.3-1.4-6.722-4.895-8.253-4.93-8.267a.286.286,0,0,1,.218-.529c.155.063,3.8,1.632,5.272,8.679,1.319,6.31,4.017,41.525,5.115,56.372a.286.286,0,0,1-.264.306Z" transform="translate(-1463.801 -2276.286)"/></g><g transform="translate(16.139 39.43)"><path class="b" d="M1500.336,2423.343a11.224,11.224,0,0,0-11.139,12.6h0l1.922,15.48a11.134,11.134,0,0,0,5.107,8.036c6.921,4.378,16.23,6.788,26.216,6.788,9.515,0,18.514-2.219,25.341-6.25a10.98,10.98,0,0,0,5.286-7.97l2.254-15.887a11.224,11.224,0,0,0-11.113-12.8Z" transform="translate(-1488.54 -2422.771)"/><path class="f" d="M1519.293,2463.664c-10.091,0-19.51-2.442-26.521-6.877a11.669,11.669,0,0,1-5.369-8.449l-1.922-15.48a11.8,11.8,0,0,1,11.706-13.246h43.874a11.8,11.8,0,0,1,11.679,13.453l-2.254,15.887a11.548,11.548,0,0,1-5.562,8.382C1538.011,2461.417,1528.908,2463.664,1519.293,2463.664Zm-22.105-42.908a10.653,10.653,0,0,0-10.572,11.962l1.922,15.48a10.529,10.529,0,0,0,4.845,7.624c6.831,4.321,16.033,6.7,25.91,6.7,9.414,0,18.31-2.192,25.051-6.171a10.411,10.411,0,0,0,5.011-7.559l2.254-15.887a10.653,10.653,0,0,0-10.547-12.148Z" transform="translate(-1485.392 -2419.613)"/></g><path class="h" d="M1546.03,2308.623c1.246,7.342-3.789,29.133-4.841,39.711-1.148,11.538-5.083,23.554-34.55,23.554s-36.19-13.144-36.192-13.148a16.574,16.574,0,0,0,6.894,8.546c7.5,4.661,17.855,7.546,29.3,7.546,10.916,0,20.845-2.624,28.247-6.912a16.433,16.433,0,0,0,8.041-11.863l4.658-32.225a25.913,25.913,0,0,0,.455-3.554l0-.031h0c.028-.494.048-.99.048-1.49A26.217,26.217,0,0,0,1546.03,2308.623Z" transform="translate(-1456.598 -2286.206)"/></g><g class="i" transform="translate(240.72 306.098)"><g transform="translate(0 0)"><g transform="translate(33.68 0.048)"><path class="c" d="M1769.22,3029.635a.813.813,0,0,1-.54-.2,7.461,7.461,0,0,0-5.151-1.792,6.809,6.809,0,0,0-4.581,1.757.815.815,0,0,1-1.153-1.152,8.349,8.349,0,0,1,5.694-2.234,9.073,9.073,0,0,1,6.27,2.2.815.815,0,0,1-.54,1.426Z" transform="translate(-1757.557 -3026.007)"/></g><path class="c" d="M1538.643,3029.368a.815.815,0,0,1-.535-1.431,9.206,9.206,0,0,1,6.276-2.244,8.42,8.42,0,0,1,5.678,2.279.815.815,0,0,1-1.144,1.161,7.4,7.4,0,0,0-9.742.035A.81.81,0,0,1,1538.643,3029.368Z" transform="translate(-1537.827 -3025.69)"/></g><path class="c" d="M1654.7,3091.09a1.3,1.3,0,0,0-.919,2.225,6.728,6.728,0,0,0,4.922,1.8,6.109,6.109,0,0,0,4.7-1.854,1.3,1.3,0,0,0-.959-2.189Z" transform="translate(-1635.682 -3081.052)"/></g><g transform="translate(240.822 303.784)"><path class="c" d="M-1020.062,3203.945h2.145l3.313,10.226h-1.936l-1.538-5.437c-.308-1.079-.635-2.239-.913-3.371h-.062c-.288,1.132-.594,2.292-.9,3.371l-1.558,5.438h-1.862Zm-1.345,6.027h4.794v1.437h-4.794Z" transform="translate(1023.375 -3203.126)"/><path class="c" d="M-984.843,3219.853l.789-1.153a5.663,5.663,0,0,0,3.214.975c1.064,0,1.564-.406,1.564-.915s-.337-.784-2.127-1.155c-2.05-.429-2.96-1.154-2.96-2.324,0-1.335,1.217-2.3,3.366-2.3a6.007,6.007,0,0,1,3.215,1.016l-.832,1.11a4.732,4.732,0,0,0-2.544-.769c-1,0-1.407.384-1.407.854,0,.542.565.732,2,1.043,2.455.541,3.094,1.2,3.094,2.415,0,1.322-1.273,2.389-3.608,2.389A6.947,6.947,0,0,1-984.843,3219.853Z" transform="translate(994.888 -3209.809)"/><path class="c" d="M-947.156,3200.8h1.809v6.909h.062l3.457-3.547h2.009l-5.528,5.675v2.007h-1.809Zm3.08,7.273,1.058-1.143,3.525,4.914h-1.979Z" transform="translate(967.026 -3200.805)"/><path class="c" d="M-911.493,3212.642h2.463v-7.167h-2.463v-1.53h6.746v1.53h-2.464v7.167h2.464v1.529h-6.746Z" transform="translate(940.66 -3203.126)"/><path class="c" d="M-875.181,3205.475H-878.4v-1.53h8.263v1.53h-3.222v8.7h-1.819Z" transform="translate(916.197 -3203.126)"/></g></g></g></svg>