<svg xmlns="http://www.w3.org/2000/svg" xmlns:xlink="http://www.w3.org/1999/xlink" width="100" height="100" viewBox="0 0 100 100"><defs><style>.a{clip-path:url(#c);}.b{fill:#231f20;}.c{fill:#c619ff;}.d{fill:url(#a);}.e,.g{opacity:0.8;}.e{mix-blend-mode:multiply;}.e,.g,.h{isolation:isolate;}.f,.h{fill:#c49bd1;}.g,.h{mix-blend-mode:darken;}.i{opacity:0;}</style><radialGradient id="a" cx="0.507" cy="0.436" r="0.651" gradientTransform="translate(-0.034 -0.007) scale(1.069 0.981)" gradientUnits="objectBoundingBox"><stop offset="0.153" stop-color="#fff"/><stop offset="0.438" stop-color="#fdfcfd"/><stop offset="0.596" stop-color="#f8f4f9"/><stop offset="0.723" stop-color="#efe6f2"/><stop offset="0.833" stop-color="#e2d3e7"/><stop offset="0.932" stop-color="#d2bada"/><stop offset="1" stop-color="#c4a4cf"/></radialGradient><clipPath id="c"><rect width="100" height="100"/></clipPath></defs><g id="b" class="a"><g transform="translate(-205.736 -237.755)"><g transform="translate(213.799 250.902)"><ellipse class="b" cx="17.539" cy="8.412" rx="17.539" ry="8.412" transform="matrix(0.154, -0.988, 0.988, 0.154, 61.855, 58.709)"/><path class="c" d="M1965.591,2414.618a14.094,14.094,0,0,0,1.293-1.543l3.8-25.734a13.14,13.14,0,0,0-.8-1.8Z" transform="translate(-1890.32 -2356.851)"/><ellipse class="b" cx="8.501" cy="17.545" rx="8.501" ry="17.545" transform="translate(0 26.389) rotate(-7.508)"/><path class="c" d="M1406.974,2385.949l3.172,25.828a14.1,14.1,0,0,0,1.266,1.577l-3.584-29.18A13.017,13.017,0,0,0,1406.974,2385.949Z" transform="translate(-1403.519 -2355.659)"/><path class="d" d="M1505.671,2189.675c0-15.078-15.565-27.3-34.766-27.3s-34.766,12.223-34.766,27.3c0,.419.016.835.04,1.249h-.026l.067.531c.051.622.13,1.237.233,1.846l1.81,14.341,1.612,12.74a13.831,13.831,0,0,0,6.456,10c6.289,3.91,14.975,6.329,24.573,6.329,9.156,0,17.484-2.2,23.692-5.8a13.782,13.782,0,0,0,6.744-9.95l3.907-27.028a21.729,21.729,0,0,0,.382-2.981l0-.026h0C1505.654,2190.51,1505.671,2190.094,1505.671,2189.675Z" transform="translate(-1428.934 -2162.374)"/><g class="e" transform="translate(32.534 0.733)"><path class="f" d="M1642.6,2183.375a9.361,9.361,0,0,1-9.436-9.263v-5.8a.24.24,0,0,1,.48,0v5.8a8.958,8.958,0,0,0,17.913,0v-5.8a.24.24,0,0,1,.479,0v5.8A9.361,9.361,0,0,1,1642.6,2183.375Z" transform="translate(-1633.164 -2168.076)"/></g><g class="g" transform="translate(63.651 14.46)"><path class="f" d="M1875.448,2330.122h-.018a.24.24,0,0,1-.221-.257c.925-12.52,3.2-42.215,4.309-47.534,1.235-5.909,4.619-7.4,4.763-7.463a.24.24,0,1,1,.187.441c-.058.026-3.305,1.5-4.481,7.12-1.106,5.291-3.376,34.96-4.3,47.471A.24.24,0,0,1,1875.448,2330.122Z" transform="translate(-1875.208 -2274.849)"/></g><g class="g" transform="translate(10.761 14.645)"><path class="f" d="M1472.6,2331.122a.24.24,0,0,1-.239-.222c-.921-12.443-3.181-41.954-4.282-47.218-1.178-5.638-4.105-6.922-4.135-6.934a.24.24,0,0,1,.182-.444c.13.053,3.187,1.369,4.422,7.28,1.106,5.292,3.369,34.828,4.29,47.281a.24.24,0,0,1-.221.257Z" transform="translate(-1463.801 -2276.286)"/></g><g transform="translate(13.537 33.071)"><path class="b" d="M1498.526,2423.343a9.414,9.414,0,0,0-9.343,10.571h0l1.612,12.984a9.338,9.338,0,0,0,4.283,6.74c5.805,3.672,13.613,5.694,21.988,5.694,7.98,0,15.528-1.862,21.255-5.242a9.209,9.209,0,0,0,4.434-6.685l1.89-13.325a9.414,9.414,0,0,0-9.321-10.736Z" transform="translate(-1488.632 -2422.864)"/><path class="f" d="M1513.826,2456.56c-8.464,0-16.363-2.048-22.244-5.768a9.787,9.787,0,0,1-4.5-7.086l-1.612-12.984a9.894,9.894,0,0,1,9.818-11.11h36.8a9.894,9.894,0,0,1,9.8,11.283l-1.89,13.325a9.686,9.686,0,0,1-4.665,7.031C1529.525,2454.675,1521.89,2456.56,1513.826,2456.56Zm-18.54-35.988a8.935,8.935,0,0,0-8.867,10.033l1.612,12.983a8.832,8.832,0,0,0,4.064,6.394c5.729,3.624,13.447,5.619,21.731,5.619,7.9,0,15.357-1.838,21.011-5.176a8.732,8.732,0,0,0,4.2-6.34l1.89-13.325a8.935,8.935,0,0,0-8.846-10.189Z" transform="translate(-1485.392 -2419.613)"/></g><path class="h" d="M1533.841,2308.623c1.045,6.158-3.178,24.434-4.061,33.307-.963,9.677-4.263,19.755-28.978,19.755s-30.353-11.024-30.355-11.027a13.9,13.9,0,0,0,5.782,7.168c6.289,3.909,14.975,6.329,24.573,6.329,9.156,0,17.484-2.2,23.692-5.8a13.783,13.783,0,0,0,6.744-9.95l3.907-27.028a21.739,21.739,0,0,0,.382-2.981l0-.026h0c.024-.414.04-.83.04-1.25A21.989,21.989,0,0,0,1533.841,2308.623Z" transform="translate(-1458.832 -2289.821)"/></g><g class="i" transform="translate(236.378 297.196)"><g transform="translate(0 0)"><g transform="translate(28.249 0.041)"><path class="c" d="M1767.339,3029.05a.682.682,0,0,1-.453-.171,6.258,6.258,0,0,0-4.32-1.5,5.712,5.712,0,0,0-3.842,1.474.684.684,0,0,1-.967-.967,7,7,0,0,1,4.776-1.874,7.611,7.611,0,0,1,5.259,1.845.684.684,0,0,1-.453,1.2Z" transform="translate(-1757.557 -3026.007)"/></g><path class="c" d="M1538.511,3028.775a.684.684,0,0,1-.448-1.2,7.722,7.722,0,0,1,5.264-1.882,7.063,7.063,0,0,1,4.763,1.911.684.684,0,0,1-.96.974,6.2,6.2,0,0,0-8.171.029A.679.679,0,0,1,1538.511,3028.775Z" transform="translate(-1537.827 -3025.69)"/></g><path class="c" d="M1654.492,3091.088a1.092,1.092,0,0,0-.771,1.866,5.643,5.643,0,0,0,4.128,1.511,5.123,5.123,0,0,0,3.941-1.555,1.093,1.093,0,0,0-.8-1.836Z" transform="translate(-1638.539 -3082.668)"/></g><g transform="translate(236.464 295.255)"><path class="c" d="M-1020.6,3203.945h1.8l2.779,8.577h-1.624l-1.29-4.561c-.258-.9-.532-1.878-.766-2.827h-.052c-.242.949-.5,1.922-.756,2.827l-1.306,4.561h-1.562Zm-1.128,5.055h4.021v1.205h-4.021Z" transform="translate(1023.375 -3203.259)"/><path class="c" d="M-984.843,3218.745l.662-.967a4.749,4.749,0,0,0,2.7.818c.893,0,1.312-.34,1.312-.767s-.283-.658-1.784-.969c-1.719-.36-2.483-.968-2.483-1.949,0-1.12,1.021-1.926,2.823-1.926a5.038,5.038,0,0,1,2.7.852l-.7.931a3.969,3.969,0,0,0-2.134-.645c-.835,0-1.18.322-1.18.716,0,.455.474.614,1.68.875,2.059.454,2.595,1,2.595,2.025,0,1.109-1.068,2-3.026,2A5.826,5.826,0,0,1-984.843,3218.745Z" transform="translate(993.268 -3210.321)"/><path class="c" d="M-947.156,3200.8h1.517v5.8h.052l2.9-2.975H-941l-4.636,4.76v1.683h-1.517Zm2.583,6.1.887-.958,2.957,4.122h-1.66Z" transform="translate(963.822 -3200.805)"/><path class="c" d="M-911.493,3211.239h2.066v-6.011h-2.066v-1.283h5.658v1.283H-907.9v6.011h2.066v1.283h-5.658Z" transform="translate(935.957 -3203.259)"/><path class="c" d="M-875.7,3205.228h-2.7v-1.283h6.93v1.283h-2.7v7.294H-875.7Z" transform="translate(910.102 -3203.259)"/></g></g></g></svg>